<?xml version="1.0" standalone="no"?><!DOCTYPE svg PUBLIC "-//W3C//DTD SVG 1.1//EN" "http://www.w3.org/Graphics/SVG/1.1/DTD/svg11.dtd"><svg t="1517319648264" class="icon" style="" viewBox="0 0 1024 1024" version="1.1" xmlns="http://www.w3.org/2000/svg" p-id="1470" xmlns:xlink="http://www.w3.org/1999/xlink" width="22" height="22"><defs><style type="text/css"></style></defs><path d="M533.333333 981.333333c-187.733333 0-426.666667-315.733333-426.666666-465.066666V170.666667c0-21.333333 17.066667-42.666667 42.666666-42.666667 72.533333 0 260.266667-21.333333 358.4-115.2 12.8-12.8 38.4-17.066667 55.466667-4.266667 46.933333 34.133333 174.933333 115.2 354.133333 123.733334 21.333333 0 42.666667 21.333333 42.666667 42.666666v354.133334c-4.266667 132.266667-230.4 452.266667-426.666667 452.266666zM187.733333 213.333333v302.933334c0 110.933333 204.8 379.733333 341.333334 379.733333s337.066667-277.333333 337.066666-371.2V209.066667c-149.333333-17.066667-268.8-76.8-328.533333-115.2-102.4 85.333333-256 110.933333-349.866667 119.466666z m341.333334 490.666667c-17.066667 0-29.866667-8.533333-38.4-25.6L341.333333 371.2c-8.533333-21.333333 0-46.933333 21.333334-55.466667 21.333333-8.533333 46.933333 0 55.466666 21.333334l110.933334 230.4 115.2-230.4c8.533333-21.333333 34.133333-29.866667 55.466666-21.333334 21.333333 8.533333 29.866667 34.133333 21.333334 55.466667L567.466667 682.666667c-8.533333 12.8-21.333333 21.333333-38.4 21.333333z" fill="#0f93ab" p-id="1471"></path></svg>