<?xml version="1.0" standalone="no"?><!DOCTYPE svg PUBLIC "-//W3C//DTD SVG 1.1//EN" "http://www.w3.org/Graphics/SVG/1.1/DTD/svg11.dtd"><svg t="1517319988330" class="icon" style="" viewBox="0 0 1025 1024" version="1.1" xmlns="http://www.w3.org/2000/svg" p-id="4084" xmlns:xlink="http://www.w3.org/1999/xlink" width="22.021484375" height="22"><defs><style type="text/css"></style></defs><path d="M507.918859 650.527512c-49.503789-40.346806-106.623387-94.611243-156.090335-155.822216-34.713235-42.89496-65.404683-87.94306-33.707276-119.633303L95.656089 153.242337C63.221866 193.655661-8.620745 386.103763 299.338585 701.174388c324.458887 332.036833 533.74323 261.005742 569.766359 223.573453L652.205814 708.149578C621.886867 738.400983 582.842793 711.503113 507.918859 650.527512zM947.385483 798.906865l0-0.201601c0 0-169.23738-168.702166-169.343809-168.769707-13.381394-13.347623-34.814547-13.078481-48.127376 0.067541l-61.340939 61.375733 217.469138 217.203066c0 0 61.409504-61.176179 61.342986-61.245767l0.165784-0.132013C961.605005 833.148333 960.162074 811.75202 947.385483 798.906865zM396.298428 297.126091l0-0.168854c14.051691-14.083415 12.74589-35.45005 0-48.196964l0-0.234348c0 0-174.132089-173.597897-174.200654-173.597897-13.452005-13.484753-34.884135-13.148069-48.163193 0l-61.342986 61.441228 222.299375 221.961668C334.888924 358.335017 396.298428 297.225356 396.298428 297.126091z" p-id="4085" fill="#21d397"></path></svg>